<svg id="Layer_1" data-name="Layer 1" xmlns="http://www.w3.org/2000/svg" xmlns:xlink="http://www.w3.org/1999/xlink" viewBox="0 0 298.29 298.29"><defs><style>.cls-1{fill:url(#linear-gradient);}.cls-2,.cls-3{fill:#fff;}.cls-3{opacity:0.7;}</style><linearGradient id="linear-gradient" x1="38.7" y1="28.05" x2="267.74" y2="279.18" gradientUnits="userSpaceOnUse"><stop offset="0" stop-color="#21db4d"/><stop offset="1" stop-color="#068e30"/></linearGradient></defs><title>Logo</title><rect class="cls-1" width="298.29" height="298.29" rx="72.43"/><path class="cls-2" d="M84,107.72l-32,32a11,11,0,0,0-1.23,1.05h0a11.78,11.78,0,0,0,0,16.66l.09.08h0L84,190.57a11.78,11.78,0,0,0,16.66,0h0a11.77,11.77,0,0,0,0-16.65L75.88,149.19l24.81-24.82a11.77,11.77,0,0,0,0-16.65h0A11.77,11.77,0,0,0,84,107.72Z"/><path class="cls-2" d="M214.25,107.72l32,32a12,12,0,0,1,1.23,1.05h0a11.8,11.8,0,0,1,0,16.66l-.09.08h0l-33.06,33.06a11.77,11.77,0,0,1-16.65,0h0a11.77,11.77,0,0,1,0-16.65l24.73-24.73-24.82-24.82a11.77,11.77,0,0,1,0-16.65h0A11.78,11.78,0,0,1,214.25,107.72Z"/><rect class="cls-3" x="75.73" y="136.61" width="146.82" height="25.07" rx="12.53" transform="translate(333.07 45.91) rotate(105.7)"/></svg>